<svg xmlns="http://www.w3.org/2000/svg" width="290" height="265" viewBox="470 245 290 265"><path fill="#0a1628" d="M586.938 259.123c6.088-.744 23.662-.328 30.472-.317l59.145.091c-6.201 4.992-39.086 34.255-42.066 34.838-27.488 5.376-50.24-4.61-79.207 12.156a78.6 78.6 0 0 0-36.467 47.931 70.5 70.5 0 0 0-2.205 13.816c-1.652 26.25.864 55.15-.2 81.705-.608 15.197 26.781 7.124 37.431 9.317l-.379.874c-9.27 6.176-19.285 14.124-28.212 20.936a5346 5346 0 0 0-44.616 34.331l-.094-98.853c.008-20.337-1.243-50.107 3.065-68.981a114 114 0 0 1 23.208-46.672 117.52 117.52 0 0 1 80.125-41.172"/><path fill="#0a1628" d="M701.51 259.036c10.573-.321 22.127-.107 32.775-.083.227 19.994-.189 40.41-.12 60.495l.144 38.404c.067 21.749.881 40.147-6.577 60.936a115.94 115.94 0 0 1-59.71 65.341c-23.658 11.154-43.4 11.063-68.533 11.078l-35.765-.054c-3.885-.03-21.793.324-23.718-.373l-.12-.832 2.2-1.738a1039 1039 0 0 0 19.995-16.203c32.505-27.44 25.81-14.446 65.861-17.709a77.3 77.3 0 0 0 19.741-4.363 78.9 78.9 0 0 0 44.507-41.583 68 68 0 0 0 5.976-21.258c1.224-10.322 1.657-86.659-.051-90.729-4.133-9.847-28.468-1.822-37.349-5.495l-.002-.971c2.181-2.556 9.37-8.443 12.28-10.63 7.475-5.618 20.623-20.923 28.466-24.233"/><path fill="#0ffefd" d="M575.029 320.834c2.009-.296 3.035.423 4.459 1.793 6.183 5.951 12.062 12.243 17.994 18.445a2505 2505 0 0 0 30.121 31.036c4.533 4.596 12.121 12.483 17.024 16.267 7.296-21.535 14.067-20.29 33.963-20.58-.167 32.494.556 59.146-37.781 66.938-1.725-.1-2.608.061-3.932-1.336-21.588-22.782-44.796-44.838-66.289-67.579-7.649 22.504-13.401 20.514-34.459 20.237-.164-32.363.495-59.522 38.9-65.221"/><path fill="#4f8ef7" d="M557.216 405.218a6.224 6.224 0 0 1 2.978 12.073 6.222 6.222 0 1 1-2.978-12.073"/><path fill="#4f8ef7" d="M671.145 352.898a6.143 6.143 0 1 1 1.894 12.14 6.143 6.143 0 0 1-1.894-12.14"/><path fill="#4f8ef7" d="M669.804 337.578a6.09 6.09 0 0 1 7.833 3.333 6.089 6.089 0 0 1-9.282 7.209 6.09 6.09 0 0 1 1.449-10.542"/><path fill="#4f8ef7" d="M654.368 352.973a6.076 6.076 0 1 1 3.846 11.527 6.076 6.076 0 0 1-3.846-11.527"/><path fill="#4f8ef7" d="M655.15 305.589a6.066 6.066 0 1 1 1.898 11.984 6.066 6.066 0 0 1-1.898-11.984"/><path fill="#4f8ef7" d="M555.561 390.498a6.068 6.068 0 0 1 8.825 6.323 6.065 6.065 0 0 1-11.588 1.375 6.067 6.067 0 0 1 2.763-7.698"/><path fill="#4f8ef7" d="M541.011 389.764a6.06 6.06 0 1 1 3.445 11.62 6.06 6.06 0 0 1-3.445-11.62"/><path fill="#4f8ef7" d="M541.067 405.303a6.043 6.043 0 1 1 3.679 11.513 6.044 6.044 0 0 1-3.679-11.513"/><path fill="#4f8ef7" d="M541.053 421.209a6.003 6.003 0 1 1 3.175 11.575 6.004 6.004 0 0 1-3.175-11.575"/><path fill="#4f8ef7" d="M669.051 322.275a6 6 0 1 1 5.702 10.56 6 6 0 0 1-5.702-10.56"/><path fill="#4f8ef7" d="M555.835 437.094c8.722-1.001 12.004 5.311 6.199 10.552-2.519.097-6.967.871-8.505-1.272-2.725-3.794-.576-7.009 2.306-9.28"/><path fill="#4f8ef7" d="M654.123 322.058a5.992 5.992 0 0 1 7.979 6.969 5.992 5.992 0 1 1-7.979-6.969"/><path fill="#4f8ef7" d="M668.777 306.865a5.95 5.95 0 0 1 9.054 5.086 5.95 5.95 0 0 1-11.09 2.997 5.95 5.95 0 0 1 2.036-8.083"/><path fill="#4f8ef7" d="M542.476 436.583a5.917 5.917 0 0 1 5.64 8.683 5.914 5.914 0 0 1-11.129-2.527 5.915 5.915 0 0 1 5.489-6.156"/><path fill="#4f8ef7" d="M557.457 421.283a5.881 5.881 0 0 1 6.784 7.726 5.88 5.88 0 1 1-6.784-7.726"/><path fill="#4f8ef7" d="M653.305 338.18a5.813 5.813 0 1 1 5.5 10.242 5.813 5.813 0 0 1-5.5-10.242"/></svg>
