<svg xmlns="http://www.w3.org/2000/svg" width="1216" height="896" viewBox="0 0 1216 896"><path fill="#fff" d="M0 0h1216v896H0z"/><path fill="#0a1628" d="M586.938 259.123c6.088-.744 23.662-.328 30.472-.317l59.145.091c-6.201 4.992-39.086 34.255-42.066 34.838-27.488 5.376-50.24-4.61-79.207 12.156a78.6 78.6 0 0 0-36.467 47.931 70.5 70.5 0 0 0-2.205 13.816c-1.652 26.25.864 55.15-.2 81.705-.608 15.197 26.781 7.124 37.431 9.317l-.379.874c-9.27 6.176-19.285 14.124-28.212 20.936a5346 5346 0 0 0-44.616 34.331l-.094-98.853c.008-20.337-1.243-50.107 3.065-68.981a114 114 0 0 1 23.208-46.672 117.52 117.52 0 0 1 80.125-41.172"/><path fill="#0a1628" d="M701.51 259.036c10.573-.321 22.127-.107 32.775-.083.227 19.994-.189 40.41-.12 60.495l.144 38.404c.067 21.749.881 40.147-6.577 60.936a115.94 115.94 0 0 1-59.71 65.341c-23.658 11.154-43.4 11.063-68.533 11.078l-35.765-.054c-3.885-.03-21.793.324-23.718-.373l-.12-.832 2.2-1.738a1039 1039 0 0 0 19.995-16.203c32.505-27.44 25.81-14.446 65.861-17.709a77.3 77.3 0 0 0 19.741-4.363 78.9 78.9 0 0 0 44.507-41.583 68 68 0 0 0 5.976-21.258c1.224-10.322 1.657-86.659-.051-90.729-4.133-9.847-28.468-1.822-37.349-5.495l-.002-.971c2.181-2.556 9.37-8.443 12.28-10.63 7.475-5.618 20.623-20.923 28.466-24.233"/><path fill="#0ffefd" d="M575.029 320.834c2.009-.296 3.035.423 4.459 1.793 6.183 5.951 12.062 12.243 17.994 18.445a2505 2505 0 0 0 30.121 31.036c4.533 4.596 12.121 12.483 17.024 16.267 7.296-21.535 14.067-20.29 33.963-20.58-.167 32.494.556 59.146-37.781 66.938-1.725-.1-2.608.061-3.932-1.336-21.588-22.782-44.796-44.838-66.289-67.579-7.649 22.504-13.401 20.514-34.459 20.237-.164-32.363.495-59.522 38.9-65.221"/><path fill="#0a1628" d="m313.535 537.787 13.617.026-.046 80.077c-3.648.012-7.977-.265-11.675-.405-4.334-3.59-15.54-18.168-19.501-23.083l-25.34-30.821c-.207 17.979.034 36.573.063 54.595l-14.24-.121-.079-80.115 11.811.011c15.307 17.101 29.037 37.506 45.256 54.345-.433-17.404.07-36.932.134-54.509"/><path fill="#0a1628" d="M368.715 557.11c16.601-1.375 30.682 3.268 36.001 20.949 1.414 4.699 1.046 8.852.948 13.704-15.747.557-33.153-.266-49.292.046 5.4 16.344 19.19 19.136 33.889 12.405l4.457-2.836c2.361 2.533 4.793 5.414 7.096 8.034-16.513 16.848-52.937 10.958-57.755-14.376-3.581-18.828 5.624-34.345 24.656-37.926"/><path fill="#fff" d="M370.168 567.74c13.257-1.267 19.829 2.266 23.535 15.281q-6.406.075-12.812.076-12.128.16-24.256.075c2.554-8.55 4.523-12.733 13.533-15.432"/><path fill="#0a1628" d="M647.629 557.186c12.186-.915 26.476 3.465 28.427 16.648 1.936 13.08.937 30.945.845 44.366l-8.406.051-.091-8.584c-8.277 8.165-16.647 11.118-28.513 8.726-6.375-1.285-10.788-4.732-14.233-10.193-9.55-27.889 26.4-24.67 42.086-24.584-.21-4.621-.304-8.739-3.618-12.346-8.707-9.477-24.471-6.434-33.346.75l-4.485-7.1c7.493-5.341 12.341-6.781 21.334-7.734"/><path fill="#fff" d="M645.164 590.978c7.047-.341 15.111-.186 22.232-.13.092 10.183-.774 16.374-11.659 20.123-23.779 5.019-30.069-16.284-10.573-19.993"/><path fill="#0a1628" d="M882.086 557.775a48.5 48.5 0 0 1 10.074.267c24.53 3.413 16.925 29.582 18.122 47.26.243 3.585.287 8.774-.295 12.272-1.383 1.021-4.894.759-6.424-.135-1.251-1.891-.903-4.927-.918-7.383-11.415 11.733-34.37 13.414-42.433-2.57-7.034-27.211 26.273-23.268 42.37-23.226.018-1.708.191-5.619-.15-7.091-4.179-18.024-26.15-14.282-37.187-6.239l-4.136-5.406c6.579-4.97 12.912-6.882 20.977-7.749"/><path fill="#fff" d="M877.696 590.437c6.498-.446 18.27-.34 24.747.223q.132 5.343.019 10.687c-3.526 5.83-5.437 7.711-11.82 10.469l-.516.143c-23.407 6.341-31.814-17.175-12.43-21.522"/><path fill="#0a1628" d="m410.497 557.518 14.658-.043c5.031 6.027 10.82 14.162 15.641 20.547 5.271-6.58 10.352-13.799 15.673-20.529l14.596.024a1177 1177 0 0 0-22.954 29.94c6.964 7.959 18.012 21.63 24.111 30.039l-.467.621-14.091-.165c-4.664-4.806-12.402-16.11-16.857-22.035-5.106 6.231-11.284 15.493-16.201 22.232l-15.318-.022c5.568-7.906 17.338-23.687 23.494-30.678-7.047-10.069-14.892-20.056-22.285-29.931"/><path fill="#0a1628" d="m785.083 532.54 7.795-.038q-.102 17.465.245 34.926c7.372-7.316 12.4-9.717 22.975-9.912 10.983-.872 22.852 6.422 24.55 18.05 1.862 12.751 1.147 29.307 1.168 42.525l-8.137.072-.139-36.674c-3.313-20.379-28.029-22.273-37.532-7.373-4.5 7.055-2.867 34.138-2.794 44.339l-8.217.074c-.428-28.246.001-57.649.086-85.989"/><path fill="#0a1628" d="M734.818 537.59c12.565-1.033 23.572 3.9 32.949 11.875l-5.22 5.307a59 59 0 0 0-4.597-3.536 36.58 36.58 0 0 0-27.198-5.692c-19.262 3.768-30.648 21.099-26.581 40.273a32.42 32.42 0 0 0 14.3 20.602c8.933 5.667 19.386 6.622 29.546 4.348 6.071-1.758 9.691-4.817 14.591-8.595l5.091 5.015c-22.204 24.464-70.105 10.526-72.333-24.118-1.666-25.915 14.095-43.264 39.452-45.479"/><path fill="#0a1628" d="m561.564 557.58 10.305.01-3.095 6.748-24.313 53.832-11.653.077c-8.974-19.99-17.804-41.463-28.098-60.652l11.309.108c3.134 5.226 6.794 14.032 9.448 19.8l13.792 29.672c7.606-15.993 14.586-33.212 22.305-49.595"/><path fill="#0a1628" d="M934.235 544.994c2.36-.076 5.109 0 7.503.012l-.031 13.249 16.863.025c.064 2.19-.047 4.731-.088 6.949l-16.484-.032c-.058 12.554-.411 25.734.16 37.918.514 10.982 10.582 11.458 18.026 7.736.994-.497 1.979.569 2.788 1.182 1.415 11.099-26.658 8.896-27.94-3.326-1.509-14.374-.757-29.021-.746-43.485-4.445.116-9.735.925-12.548-3.298.492-4.649 8.971-3.765 12.27-3.662q-.124-6.638.227-13.268"/><path fill="#0a1628" d="M592.616 565.565c6.841-7.178 10.841-7.871 20.845-8.161l.083 8.286c-16.175.169-20.625 6.025-21.53 21.995l-.04 30.414-9.387.057q-.2-30.304.273-60.605l9.048.049c.091 2.485.458 5.444.708 7.965"/><path fill="#0a1628" d="m482.486 557.663 12.395-.021.175 60.463-12.8.034c.012-19.532-.373-41.119.23-60.476"/><path fill="#0a1628" d="M486.346 529.766a8.709 8.709 0 1 1 4.003 16.952 8.709 8.709 0 0 1-4.003-16.952"/><path fill="#4f8ef7" d="M557.216 405.218a6.224 6.224 0 0 1 2.978 12.073 6.222 6.222 0 1 1-2.978-12.073"/><path fill="#4f8ef7" d="M671.145 352.898a6.143 6.143 0 1 1 1.894 12.14 6.143 6.143 0 0 1-1.894-12.14"/><path fill="#4f8ef7" d="M669.804 337.578a6.09 6.09 0 0 1 7.833 3.333 6.089 6.089 0 0 1-9.282 7.209 6.09 6.09 0 0 1 1.449-10.542"/><path fill="#4f8ef7" d="M654.368 352.973a6.076 6.076 0 1 1 3.846 11.527 6.076 6.076 0 0 1-3.846-11.527"/><path fill="#4f8ef7" d="M655.15 305.589a6.066 6.066 0 1 1 1.898 11.984 6.066 6.066 0 0 1-1.898-11.984"/><path fill="#4f8ef7" d="M555.561 390.498a6.068 6.068 0 0 1 8.825 6.323 6.065 6.065 0 0 1-11.588 1.375 6.067 6.067 0 0 1 2.763-7.698"/><path fill="#4f8ef7" d="M541.011 389.764a6.06 6.06 0 1 1 3.445 11.62 6.06 6.06 0 0 1-3.445-11.62"/><path fill="#4f8ef7" d="M541.067 405.303a6.043 6.043 0 1 1 3.679 11.513 6.044 6.044 0 0 1-3.679-11.513"/><path fill="#4f8ef7" d="M541.053 421.209a6.003 6.003 0 1 1 3.175 11.575 6.004 6.004 0 0 1-3.175-11.575"/><path fill="#4f8ef7" d="M669.051 322.275a6 6 0 1 1 5.702 10.56 6 6 0 0 1-5.702-10.56"/><path fill="#4f8ef7" d="M555.835 437.094c8.722-1.001 12.004 5.311 6.199 10.552-2.519.097-6.967.871-8.505-1.272-2.725-3.794-.576-7.009 2.306-9.28"/><path fill="#4f8ef7" d="M654.123 322.058a5.992 5.992 0 0 1 7.979 6.969 5.992 5.992 0 1 1-7.979-6.969"/><path fill="#4f8ef7" d="M668.777 306.865a5.95 5.95 0 0 1 9.054 5.086 5.95 5.95 0 0 1-11.09 2.997 5.95 5.95 0 0 1 2.036-8.083"/><path fill="#4f8ef7" d="M542.476 436.583a5.917 5.917 0 0 1 5.64 8.683 5.914 5.914 0 0 1-11.129-2.527 5.915 5.915 0 0 1 5.489-6.156"/><path fill="#4f8ef7" d="M557.457 421.283a5.881 5.881 0 0 1 6.784 7.726 5.88 5.88 0 1 1-6.784-7.726"/><path fill="#4f8ef7" d="M653.305 338.18a5.813 5.813 0 1 1 5.5 10.242 5.813 5.813 0 0 1-5.5-10.242"/></svg>